<?xml version="1.0" standalone="no"?>
<!DOCTYPE svg PUBLIC "-//W3C//DTD SVG 1.1//EN" "http://www.w3.org/Graphics/SVG/1.1/DTD/svg11.dtd" >
<svg xmlns="http://www.w3.org/2000/svg" xmlns:xlink="http://www.w3.org/1999/xlink" version="1.1">
<metadata>
Created by FontForge 20170731 at Fri Dec  3 18:18:47 1999
 By Aleksey,,,
1999 by Boba Fonts - http://www.swfans.net/multimedia/bobafonts
</metadata>
<defs>
<font id="Aurek-BeshNarrow" horiz-adv-x="268" >
  <font-face 
    font-family="Aurek-Besh Narrow"
    font-weight="400"
    font-stretch="normal"
    units-per-em="1000"
    panose-1="0 0 6 6 0 0 0 0 0 0"
    ascent="800"
    descent="-200"
    x-height="968"
    cap-height="975"
    bbox="11.7126 -92 1297 1144"
    underline-thickness="20"
    underline-position="-163"
    unicode-range="U+0020-201D"
  />
<missing-glyph horiz-adv-x="500" 
d="M63 0v800h375v-800h-375zM125 63h250v675h-250v-675z" />
    <glyph glyph-name=".notdef" horiz-adv-x="500" 
d="M63 0v800h375v-800h-375zM125 63h250v675h-250v-675z" />
    <glyph glyph-name=".null" horiz-adv-x="0" 
 />
    <glyph glyph-name="nonmarkingreturn" horiz-adv-x="505" 
 />
    <glyph glyph-name="space" unicode=" " horiz-adv-x="505" 
 />
    <glyph glyph-name="exclam" unicode="!" horiz-adv-x="347" 
d="M275 368l-214 -296v210l214 296v-210zM274 712l-214 -296v210l214 296v-210z" />
    <glyph glyph-name="quotedbl" unicode="&#x22;" horiz-adv-x="572" 
d="M511 976v-503h-203l-286 503h163l197 -352v352h129z" />
    <glyph glyph-name="numbersign" unicode="#" horiz-adv-x="899" 
d="M880 968l-230 -969h-454v299h95v-73h291l126 522l7 23v3h-424v-65h-95v260h684zM139 968v-260h-114v260h114zM25 298h114v-299h-114v299z" />
    <glyph glyph-name="dollar" unicode="$" horiz-adv-x="606" 
d="M158 968v-195h58v195h57v-195h307l-301 -774h-145l220 561h-81v-195h-57v195h-58v-195h-57v195h-56v213h56v195h57z" />
    <glyph glyph-name="percent" unicode="%" horiz-adv-x="821" 
d="M561 968l242 -969h-783v226h606l-132 520h-474v223h541z" />
    <glyph glyph-name="ampersand" unicode="&#x26;" horiz-adv-x="768" 
d="M734 968v-969h-662l-31 61v333h115v-188h472v185h-300v204h300v170h-472v-201h-115v355l25 50h668z" />
    <glyph glyph-name="quotesingle" unicode="'" horiz-adv-x="312" 
d="M212 1085l67 -89h-101v-611l-124 213v487h158z" />
    <glyph glyph-name="parenleft" unicode="(" horiz-adv-x="294" 
d="M140 -1v379h-100v214h100v376h112v-969h-112z" />
    <glyph glyph-name="parenright" unicode=")" horiz-adv-x="294" 
d="M152 -1v379h100v214h-100v376h-112v-969h112z" />
    <glyph glyph-name="asterisk" unicode="*" horiz-adv-x="540" 
d="M472 966l32 -61v-844l-32 -61h-179v223h96v520h-96v223h179zM243 966v-223h-96v-520h96v-223h-179l-31 61v844l31 61h179z" />
    <glyph glyph-name="plus" unicode="+" horiz-adv-x="748" 
d="M706 13l-12 -7l-19 -6h-602l-21 4l-12 8l-5 20l-1 33v845l2 31l5 19l10 11l22 3h602l22 -2l10 -8l5 -18l3 -36v-845l-3 -35zM603 196v560h-456v-164h284v-200h-286v-196h458z" />
    <glyph glyph-name="comma" unicode="," horiz-adv-x="224" 
d="M49 0v492h123v-492h-123z" />
    <glyph glyph-name="hyphen" unicode="-" horiz-adv-x="424" 
d="M54 976v-207h319v207h-319z" />
    <glyph glyph-name="hyphen" unicode="&#x2010;" horiz-adv-x="424" 
d="M54 976v-207h319v207h-319z" />
    <glyph glyph-name="period" unicode="." horiz-adv-x="374" 
d="M204 0v492h117v-492h-117zM45 -1v492h116v-492h-116z" />
    <glyph glyph-name="slash" unicode="/" horiz-adv-x="337" 
d="M276 550l-98 -146v-404h-116v402l99 148v428l115 -1v-427z" />
    <glyph glyph-name="zero" unicode="0" horiz-adv-x="170" 
d="M44 442q-4 18 -5 31t-1 49.5t1 49.5t2 21.5t5.5 12t11 6t25 2.5t25 -2.5t11 -5.5t5.5 -10t2.5 -22t1.5 -51.5t-1.5 -48.5t-3 -20.5t-6 -13t-10.5 -7.5t-24.5 -3t-24.5 2t-14 10z" />
    <glyph glyph-name="one" unicode="1" 
d="M44 442q-4 18 -5 31t-1 49.5t1 49.5t2 21.5t5.5 12t11 6t25 2.5t25 -2.5t11 -5.5t5.5 -10t2.5 -22t1.5 -51.5t-1.5 -48.5t-3 -20.5t-6 -13t-10.5 -7.5t-24.5 -3t-24.5 2t-14 10zM152 442q-5 18 -6 31t-1 49.5t1 49.5t2.5 21.5t5.5 12t11 6t25 2.5t25 -2.5t11 -5.5
t5.5 -10t2.5 -22t1 -51.5t-1 -48.5t-3 -20.5t-6.5 -13t-10.5 -7.5t-24 -3t-24 2t-14 10z" />
    <glyph glyph-name="two" unicode="2" 
d="M44 442q-4 18 -5 31t-1 49.5t1 49.5t2 21.5t5.5 12t11 6t25 2.5t25 -2.5t11 -5.5t5.5 -10t2.5 -22t1.5 -51.5t-1.5 -48.5t-3 -20.5t-6 -13t-10.5 -7.5t-24.5 -3t-24.5 2t-14 10zM151 223q-5 18 -6 31t-1 49.5t1 49.5t2.5 21.5t5.5 12t11 6t25 2.5t25 -2.5t11 -5.5
t5.5 -10t2.5 -22t1 -51.5t-1 -48.5t-3 -20.5t-6.5 -13t-10.5 -7.5t-24 -3t-24 2t-14 10zM152 442q-5 18 -6 31t-1 49.5t1 49.5t2.5 21.5t5.5 12t11 6t25 2.5t25 -2.5t11 -5.5t5.5 -10t2.5 -22t1 -51.5t-1 -48.5t-3 -20.5t-6.5 -13t-10.5 -7.5t-24 -3t-24 2t-14 10z" />
    <glyph glyph-name="three" unicode="3" 
d="M44 442q-4 18 -5 31t-1 49.5t1 49.5t2 21.5t5.5 12t11 6t25 2.5t25 -2.5t11 -5.5t5.5 -10t2.5 -22t1.5 -51.5t-1.5 -48.5t-3 -20.5t-6 -13t-10.5 -7.5t-24.5 -3t-24.5 2t-14 10zM151 11q-5 18 -6 31t-1 49.5t1 49.5t2.5 21.5t5.5 12t11 6t25 2.5t25 -2.5t11 -5.5t5.5 -10
t2.5 -22t1 -51.5t-1 -48.5t-3 -20.5t-6.5 -13t-10.5 -7.5t-24 -3t-24 2t-14 10zM152 442q-5 18 -6 31t-1 49.5t1 49.5t2.5 21.5t5.5 12t11 6t25 2.5t25 -2.5t11 -5.5t5.5 -10t2.5 -22t1 -51.5t-1 -48.5t-3 -20.5t-6.5 -13t-10.5 -7.5t-24 -3t-24 2t-14 10zM151 223
q-5 18 -6 31t-1 49.5t1 49.5t2.5 21.5t5.5 12t11 6t25 2.5t25 -2.5t11 -5.5t5.5 -10t2.5 -22t1 -51.5t-1 -48.5t-3 -20.5t-6.5 -13t-10.5 -7.5t-24 -3t-24 2t-14 10z" />
    <glyph glyph-name="four" unicode="4" 
d="M43 239l-1 41v273q0 41 4 49t11.5 10t25.5 2t25 -2.5t11.5 -8.5t5.5 -42v-278q-1 -41 -4.5 -50.5t-11.5 -14t-26 -4.5t-25.5 3.5t-14.5 21.5zM152 442q-5 18 -6 31t-1 49.5t1 49.5t2.5 21.5t5.5 12t11 6t25 2.5t25 -2.5t11 -5.5t5.5 -10t2.5 -22t1 -51.5t-1 -48.5
t-3 -20.5t-6.5 -13t-10.5 -7.5t-24 -3t-24 2t-14 10z" />
    <glyph glyph-name="five" unicode="5" 
d="M43 239l-1 41v273q0 41 4 49t11.5 10t25.5 2t25 -2.5t11.5 -8.5t5.5 -42v-278q-1 -41 -4.5 -50.5t-11.5 -14t-26 -4.5t-25.5 3.5t-14.5 21.5zM152 442q-5 18 -6 31t-1 49.5t1 49.5t2.5 21.5t5.5 12t11 6t25 2.5t25 -2.5t11 -5.5t5.5 -10t2.5 -22t1 -51.5t-1 -48.5
t-3 -20.5t-6.5 -13t-10.5 -7.5t-24 -3t-24 2t-14 10zM151 223q-5 18 -6 31t-1 49.5t1 49.5t2.5 21.5t5.5 12t11 6t25 2.5t25 -2.5t11 -5.5t5.5 -10t2.5 -22t1 -51.5t-1 -48.5t-3 -20.5t-6.5 -13t-10.5 -7.5t-24 -3t-24 2t-14 10z" />
    <glyph glyph-name="six" unicode="6" 
d="M43 239l-1 41v273q0 41 4 49t11.5 10t25.5 2t25 -2.5t11.5 -8.5t5.5 -42v-278q-1 -41 -4.5 -50.5t-11.5 -14t-26 -4.5t-25.5 3.5t-14.5 21.5zM152 442q-5 18 -6 31t-1 49.5t1 49.5t2.5 21.5t5.5 12t11 6t25 2.5t25 -2.5t11 -5.5t5.5 -10t2.5 -22t1 -51.5t-1 -48.5
t-3 -20.5t-6.5 -13t-10.5 -7.5t-24 -3t-24 2t-14 10zM151 223q-5 18 -6 31t-1 49.5t1 49.5t2.5 21.5t5.5 12t11 6t25 2.5t25 -2.5t11 -5.5t5.5 -10t2.5 -22t1 -51.5t-1 -48.5t-3 -20.5t-6.5 -13t-10.5 -7.5t-24 -3t-24 2t-14 10zM151 11q-5 18 -6 31t-1 49.5t1 49.5
t2.5 21.5t5.5 12t11 6t25 2.5t25 -2.5t11 -5.5t5.5 -10t2.5 -22t1 -51.5t-1 -48.5t-3 -20.5t-6.5 -13t-10.5 -7.5t-24 -3t-24 2t-14 10z" />
    <glyph glyph-name="seven" unicode="7" 
d="M43 33l-2 69v419q0 60 3 73t12 16.5t26.5 3.5t27.5 -2t12 -15.5t2 -63.5v-425q0 -72 -3 -85t-12 -17.5t-26.5 -4.5t-26.5 5.5t-13 26.5zM152 442q-5 18 -6 31t-1 49.5t1 49.5t2.5 21.5t5.5 12t11 6t25 2.5t25 -2.5t11 -5.5t5.5 -10t2.5 -22t1 -51.5t-1 -48.5t-3 -20.5
t-6.5 -13t-10.5 -7.5t-24 -3t-24 2t-14 10z" />
    <glyph glyph-name="eight" unicode="8" 
d="M43 33l-2 69v419q0 60 3 73t12 16.5t26.5 3.5t27.5 -2t12 -15.5t2 -63.5v-425q0 -72 -3 -85t-12 -17.5t-26.5 -4.5t-26.5 5.5t-13 26.5zM152 442q-5 18 -6 31t-1 49.5t1 49.5t2.5 21.5t5.5 12t11 6t25 2.5t25 -2.5t11 -5.5t5.5 -10t2.5 -22t1 -51.5t-1 -48.5t-3 -20.5
t-6.5 -13t-10.5 -7.5t-24 -3t-24 2t-14 10zM151 223q-5 18 -6 31t-1 49.5t1 49.5t2.5 21.5t5.5 12t11 6t25 2.5t25 -2.5t11 -5.5t5.5 -10t2.5 -22t1 -51.5t-1 -48.5t-3 -20.5t-6.5 -13t-10.5 -7.5t-24 -3t-24 2t-14 10z" />
    <glyph glyph-name="nine" unicode="9" 
d="M43 33l-2 69v419q0 60 3 73t12 16.5t26.5 3.5t27.5 -2t12 -15.5t2 -63.5v-425q0 -72 -3 -85t-12 -17.5t-26.5 -4.5t-26.5 5.5t-13 26.5zM152 442q-5 18 -6 31t-1 49.5t1 49.5t2.5 21.5t5.5 12t11 6t25 2.5t25 -2.5t11 -5.5t5.5 -10t2.5 -22t1 -51.5t-1 -48.5t-3 -20.5
t-6.5 -13t-10.5 -7.5t-24 -3t-24 2t-14 10zM151 223q-5 18 -6 31t-1 49.5t1 49.5t2.5 21.5t5.5 12t11 6t25 2.5t25 -2.5t11 -5.5t5.5 -10t2.5 -22t1 -51.5t-1 -48.5t-3 -20.5t-6.5 -13t-10.5 -7.5t-24 -3t-24 2t-14 10zM151 11q-5 18 -6 31t-1 49.5t1 49.5t2.5 21.5t5.5 12
t11 6t25 2.5t25 -2.5t11 -5.5t5.5 -10t2.5 -22t1 -51.5t-1 -48.5t-3 -20.5t-6.5 -13t-10.5 -7.5t-24 -3t-24 2t-14 10z" />
    <glyph glyph-name="colon" unicode=":" horiz-adv-x="350" 
d="M42 0v206h106l-106 197v290l264 -487v-206h-264z" />
    <glyph glyph-name="semicolon" unicode=";" horiz-adv-x="240" 
d="M171 976v-977h-101v977h101z" />
    <glyph glyph-name="less" unicode="&#x3c;" horiz-adv-x="653" 
d="M601 968v-969h-116v374h-179l-135 -374h-135l214 598h235v371h116z" />
    <glyph glyph-name="equal" unicode="=" horiz-adv-x="659" 
d="M614 968v-969h-99v746h-196l-182 -746h-110l176 729v17h-91v223h502z" />
    <glyph glyph-name="greater" unicode="&#x3e;" horiz-adv-x="840" 
d="M64 227l32 -227h650l31 227h-713zM61 260l-31 185l48 47l41 60l41 73l34 75l24 86l17 87l13 99h355l10 -77l17 -98l24 -92l34 -85l41 -72l40 -51l48 -52l-35 -185l-60 59l-59 78l-62 107l-39 85l-27 84l-18 82h-193l-24 -97l-25 -67l-42 -94l-54 -92l-60 -81z" />
    <glyph glyph-name="question" unicode="?" horiz-adv-x="334" 
d="M97 24l-10 -24h109l17 34l14 42l15 47l16 59l12 73l10 75l5 89l2 88l-2 88l-5 81l-8 78l-10 59l-14 55l-14 47l-17 39l-9 20h-158v-467h103v351l11 -47l10 -57l8 -76l7 -83l3 -83l-3 -83l-5 -91l-10 -67l-13 -63l-15 -52l-16 -49l-16 -42z" />
    <glyph glyph-name="at" unicode="@" horiz-adv-x="1103" 
d="M1057 552l-7 -128l-21 -91l-21 -53l-8 -3q-53 -118 -184 -205q-70 -45 -187 -65h-130l-65 11l-7 9l-48 11l-80 41l-56 39l-48 49q-105 128 -125 275q-11 130 34 269l19 35l8 3q-3 15 68 106l44 41q133 100 250 109h139q104 -18 184 -67q210 -132 241 -386zM165 307
q14 -4 22 6l-26 77l38 15h2l-9 79q-5 30 9 118l-40 11l23 72l-9 15l-18 -4l-34 -140q-3 -173 42 -249zM209 737l50 61h13l18 -22l12 -4q77 75 158 95l-11 48l83 11h3l-3 31l-79 -11l-64 -23l-80 -45q-50 -42 -74 -72h-10l-33 -48l3 -12zM816 776l11 3l25 27l17 -19
q11 4 36 -41q8 -5 23 12l-23 36h-11l-11 23l-44 46q-90 68 -244 94l-12 -4l5 -27l59 -3l19 -8l-7 -48q130 -43 157 -91zM513 57h25v26l-82 11l8 50q-85 30 -116 53q-30 19 -46 41l-24 -30h-16l-50 60l-17 -12q-3 -10 23 -37l81 -80l94 -52zM592 57l67 7q57 15 127 50
q30 14 94 75l53 64v12l-16 6l-15 -6l-8 -23l-30 -30h-12l-22 26h-11l-56 -52l-70 -35l-31 -7l7 -41q-28 -20 -74 -20zM954 310q15 -3 32 68l17 88q5 76 -6 139l-39 102l-22 -11l26 -76l-34 -11q-11 -4 -8 -22q24 -31 0 -175l42 -11l-21 -83q13 0 13 -8zM332 313l12 5l27 30
q25 11 72 57h10l18 -19l42 -23l25 -8l-22 -124v-23h93l-21 147l56 23l33 30l62 -53h10l37 -37q14 0 53 79v11l-129 42q-10 0 -6 19q12 19 6 52l-6 42q15 0 135 50l-12 30l-38 49v8l-112 -95q-51 46 -89 50l17 147l-17 4l-78 -4l25 -147q-57 -15 -86 -50h-11l-100 87h-9
l-44 -75v-12l137 -49q-11 -8 -7 -87l7 -15l-7 -7h-14q-83 -42 -111 -42l-5 -8z" />
    <glyph glyph-name="A" unicode="A" horiz-adv-x="846" 
d="M28 972h111v-191h300l153 191h224l-377 -416h-411v416zM28 416h423l370 -416h-209l-181 191h-294v-191h-109v416z" />
    <glyph glyph-name="B" unicode="B" horiz-adv-x="818" 
d="M170 965h482l141 -315v-51h-124l-57 149h-400l-60 -149h-124v51zM256 602h322v-232h-322v232zM27 343h124l59 -129h401l57 127h124v-45l-141 -297h-483l-141 297v47z" />
    <glyph glyph-name="C" unicode="C" horiz-adv-x="457" 
d="M26 966h112v-668h-112v668zM174 668h111v-370h-111v370zM321 668h113v-668h-113v668z" />
    <glyph glyph-name="D" unicode="D" horiz-adv-x="636" 
d="M621 965l-2 -17l-409 -948h-148l167 370h-181l77 222h202l66 151l-371 1l72 221h527z" />
    <glyph glyph-name="E" unicode="E" horiz-adv-x="786" 
d="M760 973v-224h-76v-749h-103v749h-14l-180 -749h-132l-236 973h127l176 -696l171 696h267z" />
    <glyph glyph-name="F" unicode="F" horiz-adv-x="768" 
d="M431 967v-233q94 31 150 72t162 174v-200q-84 -112 -149.5 -165.5t-162.5 -93.5v-298h312v-223h-719v669l131 1q89 8 172 36l1 261h103zM134 223h194v251q-68 -18 -141 -22h-53v-229z" />
    <glyph glyph-name="G" unicode="G" horiz-adv-x="747" 
d="M727 975l-1 -17l-262 -958h-426v975h91v-750h281l140 542v6h-234v-59h-93v261h504z" />
    <glyph glyph-name="H" unicode="H" horiz-adv-x="826" 
d="M799 975v-224h-774v224h774zM157 601h509v-224h-509v224zM25 225h774v-225h-774v225z" />
    <glyph glyph-name="I" unicode="I" horiz-adv-x="333" 
d="M303 975v-975h-99v730l-106 -196l-77 144q-1 8 4 16l149 281h129z" />
    <glyph glyph-name="J" unicode="J" horiz-adv-x="745" 
d="M730 971l-237 -971h-461v219h392l69 304q-53 -61 -97.5 -83t-102.5 -38.5t-188 -20.5h-71v219h73q128 16 164.5 26t99.5 47q77 56 126 107t110 192z" />
    <glyph glyph-name="K" unicode="K" horiz-adv-x="789" 
d="M742 971q9 -8 14 -28v-910q-4 -24 -17 -33h-704v224h607v524h-607v223h707z" />
    <glyph glyph-name="L" unicode="L" horiz-adv-x="559" 
d="M524 976v-977h-144l-346 413l64 183l316 -373v754h110z" />
    <glyph glyph-name="M" unicode="M" horiz-adv-x="512" 
d="M452 972v-261l-102 -2l-135 -485h269l-65 -224h-388l261 972h160z" />
    <glyph glyph-name="N" unicode="N" horiz-adv-x="834" 
d="M172 188l12 2l211 782h132l281 -972h-130l-216 768l-209 -768h-129l-7 1l-13 36l-12 39l-16 54l-14 62l-13 65l-8 75l-8 85l-3 88l-2 95l9 73l8 78l9 59l14 54l13 47l16 39l9 20h96l-17 -31l-13 -38l-14 -47l-10 -46l-9 -57l-9 -75l-6 -83l-3 -83l3 -83l8 -88l10 -67
l11 -41z" />
    <glyph glyph-name="O" unicode="O" horiz-adv-x="712" 
d="M532 972l166 -773l-66 -199h-537l-68 202l160 770h345zM143 213h438l-113 535h-212z" />
    <glyph glyph-name="P" unicode="P" horiz-adv-x="542" 
d="M511 967v-967h-386q-96 134 -102 434q12 322 124 532h168v-234h-117v52h-18q-40 -88 -40 -350q-2 -194 29 -212h224v746z" />
    <glyph glyph-name="Q" unicode="Q" horiz-adv-x="709" 
d="M662 972l18 -36v-351h-115v185h-424v-546h356l-154 -224h-275l-37 73v860l20 39h611z" />
    <glyph glyph-name="R" unicode="R" horiz-adv-x="666" 
d="M651 972l-418 -972h-144l306 720v17h-367l89 235h534z" />
    <glyph glyph-name="S" unicode="S" horiz-adv-x="791" 
d="M264 972l391 -741v741h110v-972h-151l-515 972h165zM57 462l399 -274l-35 -188l-401 269z" />
    <glyph glyph-name="T" unicode="T" horiz-adv-x="819" 
d="M457 972v-787h32l169 336h148l-267 -521h-259l-268 524h148l170 -336h31v784h96z" />
    <glyph glyph-name="U" unicode="U" horiz-adv-x="741" 
d="M695 972l24 -48v-874l-26 -50h-666v972h115v-762h462v538h-149l-70 -185h-149l157 409h302z" />
    <glyph glyph-name="V" unicode="V" horiz-adv-x="641" 
d="M180 972l131 -261h21l130 261h160l-254 -504v-468h-94v468l-254 501z" />
    <glyph glyph-name="W" unicode="W" horiz-adv-x="765" 
d="M737 958l4 -16l3 -36v-846l-2 -31l-4 -17l-10 -6l-20 -6h-650l-20 4l-10 11l-4 20l-3 30v841l2 30l4 22l10 10l20 2h651l21 -5zM646 235v513h-513v-513h513z" />
    <glyph glyph-name="X" unicode="X" horiz-adv-x="633" 
d="M613 99l-109 -99h-374l-108 99l250 871h110zM471 192l-144 564l-158 -564h302z" />
    <glyph glyph-name="Y" unicode="Y" horiz-adv-x="728" 
d="M714 974l-273 -974h-170l-249 890v46l13 31l17 7h228l115 -404h-119l-73 294h-56l198 -708h26l231 818h112z" />
    <glyph glyph-name="Z" unicode="Z" horiz-adv-x="665" 
d="M644 968v-969h-603l-25 50v268h132v-92h382v335h-238l-75 -151h-173l190 372h296v187h114z" />
    <glyph glyph-name="bracketleft" unicode="[" horiz-adv-x="1020" 
d="M319 319l5 -11h6v11h-11zM432 481l-10 -16l-17 5h6zM151 48l-5 -9l55 19l234 251l8 5l-113 -22zM346 438h103l21 -16l-5 -17l-43 -21q-22 16 -108 11zM508 459l6 -10h16l-11 -6q5 -16 16 -16l-5 -16l-22 21l6 6zM508 368v-17h16l11 22l16 -5v10l-16 6zM530 351l5 -10
l22 5v5h-27zM562 459l-11 -5zM562 422v-6h6v6h-6zM562 351l6 -10h5v10h-11zM562 368v-11h11v11h-11zM578 346v-5h6v5h-6zM578 395v-6h11v6h-11zM584 411v-6h5v6h-5zM589 405v-5h6v5h-6zM595 416v-5h10v5h-10zM578 530q-5 -6 17 -22l27 6l-6 27l-27 -6v6zM622 551v-10h10v10
h-10zM632 530v-6h6v6h-6zM530 930q11 11 86 -22l38 -389l-32 -11h-6l6 -22l-38 11l5 11h-16l-22 -27h-59l32 33h27l-5 10h-108l-27 60q-6 27 16 75zM589 389l11 -16q38 0 38 22l21 -6v11l-32 5h-27zM659 389v-5h6v5h-6zM670 395v-11h6v11h-6zM681 449l5 -11zM692 297l5 -11
l11 6v5h-16zM751 281l-16 -5zM768 276h-11h11zM249 324l5 17q92 5 97 -17q173 81 190 81v-16q27 11 32 -5l11 16l-33 11l-5 16h5l-16 27q43 -11 38 -27l5 22l22 -11q11 11 27 0l-5 -22l70 6l-6 -6l11 -21l-11 -6h49v11l6 -16l16 5v-5l16 16l-5 -49l-17 17q-5 -17 11 -22
l-5 -11l-6 6l-21 -6l-16 22h-11l32 -33v-10l54 10l11 -21v-11l-16 22l-76 -11l97 -22q-59 22 -102 0l18 -32l179 -226l9 -12l26 11v16l-124 232l-27 6q38 5 48 -33l114 -216l-38 -22l-211 271l-21 5l-27 27l21 -11l6 6l-6 11h22q11 5 -22 37l-11 -10l-5 5l-22 -5l6 -11
l-108 5l-6 -5q-43 21 -65 0l-259 -276l-65 -22l195 265l-16 22l-55 -5zM611 905q-66 32 -79 22l-103 -268q-21 -48 -15 -73l25 -55l5 -4l124 1l25 25l4 -12l17 6l4 9l18 4l5 -18l4 -20l6 2zM419 614l116 310h6l-118 -310h-4zM630 702l-16 -2l-9 115l13 -1zM546 778l60 -7v-3
zM532 709l79 -6v-3zM484 533l84 363l3 -3l-84 -359zM365 244l-77 -16l-3 -6l85 19l-1 4zM228 151l77 21l-4 -4l-76 -22zM871 70l13 6l12 -23l-9 -6l-9 12l18 8l-1 3l-19 -9zM871 150l-50 -21l4 -4zM832 127l14 -23l4 3l-15 22zM279 218l-44 -60l46 13l49 59zM282 210
l-10 -13l53 10l10 12zM293 205l-12 -16l27 6l12 12zM235 146l-27 -41l-16 -7l31 43zM339 290l-24 -30l7 4l18 23h18l4 7zM160 51l39 14l21 23l-42 -9zM895 38l28 14l9 -19l1 -6l-21 -10zM808 239l48 -89l12 4l-9 15l-5 -2l-5 11l5 2l-8 19l-7 -2l-6 11l6 3l-19 33zM775 246
l5 -11l32 11l-2 9l-8 -3l4 -12l-7 -3l-10 14zM770 191l51 21l3 -4l-50 -20zM777 182l49 19l3 -5l-47 -18zM536 903l12 -4l-8 -17l-9 4zM527 879l10 -5l-12 -31l-10 3zM512 839l23 -9l-1 -4l-22 9v4zM509 828l25 -9l-4 -5l-25 10zM502 818l27 -10l-2 -6l-24 11zM428 585
l61 -7v-3l-69 8l1 3zM509 610l14 -3l-7 -73l-21 -2zM770 408l2 15l-2 13l-11 8l-29 1h-34l15 2l32 1l20 -2l13 -5l3 -16zM653 511l12 -21l-6 -5l9 -18l7 -4l9 -10l-11 6l-5 1l-14 23l4 7z" />
    <glyph glyph-name="backslash" unicode="\" horiz-adv-x="665" 
 />
    <glyph glyph-name="bracketright" unicode="]" horiz-adv-x="948" 
d="M37 481l5 -9zM42 509l4 -9zM56 370l4 -9zM60 343l5 -10zM65 315l4 -9zM65 644l4 -10zM69 287l5 -9zM69 671l5 -9zM74 699l5 -9zM79 727l4 -9zM83 755l5 -10zM88 782l5 -9zM93 153l4 -9zM93 810l4 -9zM97 125l5 -9zM97 838l5 -9zM102 97l4 -9zM116 875l-10 -5zM167 861
l-10 -5zM204 468v-5h4v5h-4zM116 838l92 -278q10 -18 -18 -69l-74 -5l-60 5zM213 486l-9 -5zM227 407l-9 -4zM218 528v-9l9 4v5h-9zM208 514l14 28l9 -10l-13 -37l-5 5l-9 -5l14 19v5zM231 463v-5h10v5h-10zM236 523l5 -14zM241 556v-5h9v5h-9zM255 838l-10 -5zM250 403v-5
h9v5h-9zM255 454v-5h4v5h-4zM264 394v-10h5v10h-5zM269 380v-5h4v5h-4zM269 537v-9h9v14zM273 569l5 -9zM287 634v-4h5v4h-5zM319 139v-5h5v5h-5zM278 370l65 -194v-23l9 4l-65 213h-9zM255 546v-9h9l5 19l13 -14l61 222l9 14l-5 23l-23 -83h-9l4 -14l-9 -5l5 -9l-9 -5l4 -9
l-9 -5l5 -9l-10 -5l5 -9l-9 -4l4 -14l-23 -37v-10l9 5l-4 -9l-5 4zM130 856l176 -41l-5 9l55 -18l33 -232q9 -23 -19 -46l-55 -19l-9 -9l-37 5l4 14h-9l-19 -24h-14v-9l-4 -5v19l23 14l-5 5l5 13h-14v24q-51 111 -106 296v4zM444 407v-4l14 4v5zM454 593l18 -5h-18v5z
M458 421l5 -14q14 0 18 19q10 -9 38 23l-5 23l-14 -18h-23l-9 -28zM500 579l23 -10h-23v10zM532 458v-4l19 4v5zM551 542q-23 -5 -23 18zM546 449v-9h14l-4 9h-10zM88 477q79 -9 139 0l4 -9l51 4v-4l14 9l14 -9q-4 13 37 9v-14l19 60q97 60 115 -51l-4 -14l23 5l-5 14h14
q10 23 23 14h5l-5 9l14 -5l-9 -4l-5 -14l28 -5l-4 -23l13 -14l-13 -9l-28 -42l-51 -23l-65 14l-28 23q10 -23 -4 -28l4 -27l-9 -14l5 -19l-10 -18l5 -19l-14 -65l5 -4l-10 -65l-46 -14v9l-180 -41l111 338l-10 -5l19 14l-5 9l-9 -9l-9 4q9 10 0 24l-14 -10l14 -32l-5 -9h-9
l5 27l-10 -9q5 28 -14 23l14 -37l-4 -46l-84 -264l-64 347l13 5h5l-5 9zM569 403l5 -14zM569 565l5 -9zM574 361l5 -14zM574 606l5 -9zM579 319l4 -13zM579 648l4 -14zM583 278l5 -9zM583 468v-5h5v5h-5zM583 690l5 -14zM588 236l5 -9zM588 731l5 -13zM593 199l4 -14z
M593 769l4 -10zM597 157l5 -13zM597 810l5 -9zM602 116l4 -14zM602 852l4 -14zM606 74l5 -14zM606 889l5 -9zM611 32l5 -9zM611 931l5 -10zM625 940l-9 -5zM644 833v-4h4v4h-4zM648 810v-4h5v4h-5zM653 787v-5h4v5h-4zM588 481v-9l93 5v4h-93zM690 444v-4h4v4h-4zM694 421
v-4h5v4h-5zM699 431v-5h5v5h-5zM704 384v-9v9zM727 444v-4h4v4h-4zM727 463v-5h4v5h-4zM704 505v-28h14v-9l9 4l-14 42l5 -5l13 28q-13 5 -9 23l-4 -28h-10q10 -4 -4 -27zM727 514v-5h9v14zM731 440v-9l10 4v5h-10zM722 495v-4l19 9v5zM741 380v-5h4v5h-4zM741 468v-5h4v5
h-4zM736 491v-14l9 4v19zM741 514v-5h4v5h-4zM745 481v-4h5v4h-5zM750 463v-5h5v5h-5zM745 523v-4h10v4h-10zM755 468v-5h4v5h-4zM778 486v-5h4v5h-4zM792 486v-5h4v5h-4zM579 486l46 431l14 -28l-5 -19h10l46 -222l-5 -18l9 4l-4 -32l9 -5l-5 -74l-13 -42l18 5l-5 23l10 10
q-14 23 9 32l-9 18l14 -13l-74 347l-19 18l5 10l176 -79v-14l-5 5l-65 -269v-9q23 0 9 -33l10 5l55 292l28 -320l-19 -287l-9 -32q9 -9 0 -74l-51 259l-9 32v-55l56 -259l-176 -84v5l-5 32l5 -9q18 0 18 23l65 310l14 37v10l-19 -5l10 -5l-10 -4l5 -14l-14 9l-74 -347
l-46 393v33l9 14zM414 511l13 -8l20 18l-8 8l-18 5zM434 497l4 -14l25 2l-3 15l-9 12zM437 471l-3 -13l19 -15l7 12l1 15zM404 511l3 20l-11 -2l-12 -10l11 -14zM385 461l-11 -11l3 -8l8 -9l7 20zM410 504q-1 -3 -6 -5t-9.5 -8t-4 -12.5t3 -13t9 -9t11.5 -2.5t9.5 2.5t5.5 8
t1 11.5t-3.5 13.5t-16.5 14.5z" />
    <glyph glyph-name="asciicircum" unicode="^" horiz-adv-x="665" 
 />
    <glyph glyph-name="underscore" unicode="_" horiz-adv-x="536" 
 />
    <glyph glyph-name="grave" unicode="`" horiz-adv-x="536" 
 />
    <glyph glyph-name="a" unicode="a" horiz-adv-x="846" 
d="M28 972h111v-191h300l153 191h224l-377 -416h-411v416zM28 416h423l370 -416h-209l-181 191h-294v-191h-109v416z" />
    <glyph glyph-name="b" unicode="b" horiz-adv-x="818" 
d="M170 965h482l141 -315v-51h-124l-57 149h-400l-60 -149h-124v51zM256 602h322v-232h-322v232zM27 343h124l59 -129h401l57 127h124v-45l-141 -297h-483l-141 297v47z" />
    <glyph glyph-name="c" unicode="c" horiz-adv-x="457" 
d="M26 966h112v-668h-112v668zM174 668h111v-370h-111v370zM321 668h113v-668h-113v668z" />
    <glyph glyph-name="d" unicode="d" horiz-adv-x="636" 
d="M621 965l-2 -17l-409 -948h-148l167 370h-181l77 222h202l66 151l-371 1l72 221h527z" />
    <glyph glyph-name="e" unicode="e" horiz-adv-x="786" 
d="M760 973v-224h-76v-749h-103v749h-14l-180 -749h-132l-236 973h127l176 -696l171 696h267z" />
    <glyph glyph-name="f" unicode="f" horiz-adv-x="768" 
d="M431 967v-233q94 31 150 72t162 174v-200q-84 -112 -149.5 -165.5t-162.5 -93.5v-298h312v-223h-719v669l131 1q89 8 172 36l1 261h103zM134 223h194v251q-68 -18 -141 -22h-53v-229z" />
    <glyph glyph-name="g" unicode="g" horiz-adv-x="747" 
d="M727 975l-1 -17l-262 -958h-426v975h91v-750h281l140 542v6h-234v-59h-93v261h504z" />
    <glyph glyph-name="h" unicode="h" horiz-adv-x="826" 
d="M799 975v-224h-774v224h774zM157 601h509v-224h-509v224zM25 225h774v-225h-774v225z" />
    <glyph glyph-name="i" unicode="i" horiz-adv-x="333" 
d="M303 975v-975h-99v730l-106 -196l-77 144q-1 8 4 16l149 281h129z" />
    <glyph glyph-name="j" unicode="j" horiz-adv-x="745" 
d="M730 971l-237 -971h-461v219h392l69 304q-53 -61 -97.5 -83t-102.5 -38.5t-188 -20.5h-71v219h73q128 16 164.5 26t99.5 47q77 56 126 107t110 192z" />
    <glyph glyph-name="k" unicode="k" horiz-adv-x="789" 
d="M742 971q9 -8 14 -28v-910q-4 -24 -17 -33h-704v224h607v524h-607v223h707z" />
    <glyph glyph-name="l" unicode="l" horiz-adv-x="559" 
d="M524 976v-977h-144l-346 413l64 183l316 -373v754h110z" />
    <glyph glyph-name="m" unicode="m" horiz-adv-x="512" 
d="M452 972v-261l-102 -2l-135 -485h269l-65 -224h-388l261 972h160z" />
    <glyph glyph-name="n" unicode="n" horiz-adv-x="834" 
d="M172 188l12 2l211 782h132l281 -972h-130l-216 768l-209 -768h-129l-7 1l-13 36l-12 39l-16 54l-14 62l-13 65l-8 75l-8 85l-3 88l-2 95l9 73l8 78l9 59l14 54l13 47l16 39l9 20h96l-17 -31l-13 -38l-14 -47l-10 -46l-9 -57l-9 -75l-6 -83l-3 -83l3 -83l8 -88l10 -67
l11 -41z" />
    <glyph glyph-name="o" unicode="o" horiz-adv-x="712" 
d="M532 972l166 -773l-66 -199h-537l-68 202l160 770h345zM143 213h438l-113 535h-212z" />
    <glyph glyph-name="p" unicode="p" horiz-adv-x="542" 
d="M511 967v-967h-386q-96 134 -102 434q12 322 124 532h168v-234h-117v52h-18q-40 -88 -40 -350q-2 -194 29 -212h224v746z" />
    <glyph glyph-name="q" unicode="q" horiz-adv-x="709" 
d="M662 972l18 -36v-351h-115v185h-424v-546h356l-154 -224h-275l-37 73v860l20 39h611z" />
    <glyph glyph-name="r" unicode="r" horiz-adv-x="666" 
d="M651 972l-418 -972h-144l306 720v17h-367l89 235h534z" />
    <glyph glyph-name="s" unicode="s" horiz-adv-x="791" 
d="M264 972l391 -741v741h110v-972h-151l-515 972h165zM57 462l399 -274l-35 -188l-401 269z" />
    <glyph glyph-name="t" unicode="t" horiz-adv-x="819" 
d="M457 972v-787h32l169 336h148l-267 -521h-259l-268 524h148l170 -336h31v784h96z" />
    <glyph glyph-name="u" unicode="u" horiz-adv-x="741" 
d="M695 972l24 -48v-874l-26 -50h-666v972h115v-762h462v538h-149l-70 -185h-149l157 409h302z" />
    <glyph glyph-name="v" unicode="v" horiz-adv-x="641" 
d="M180 972l131 -261h21l130 261h160l-254 -504v-468h-94v468l-254 501z" />
    <glyph glyph-name="w" unicode="w" horiz-adv-x="765" 
d="M737 958l4 -16l3 -36v-846l-2 -31l-4 -17l-10 -6l-20 -6h-650l-20 4l-10 11l-4 20l-3 30v841l2 30l4 22l10 10l20 2h651l21 -5zM646 235v513h-513v-513h513z" />
    <glyph glyph-name="x" unicode="x" horiz-adv-x="633" 
d="M613 99l-109 -99h-374l-108 99l250 871h110zM471 192l-144 564l-158 -564h302z" />
    <glyph glyph-name="y" unicode="y" horiz-adv-x="728" 
d="M714 974l-273 -974h-170l-249 890v46l13 31l17 7h228l115 -404h-119l-73 294h-56l198 -708h26l231 818h112z" />
    <glyph glyph-name="z" unicode="z" horiz-adv-x="665" 
d="M644 968v-969h-603l-25 50v268h132v-92h382v335h-238l-75 -151h-173l190 372h296v187h114z" />
    <glyph glyph-name="braceleft" unicode="{" horiz-adv-x="1020" 
d="M88 729v-11v11zM99 740v-5h6v5h-6zM193 834v-5h6v5h-6zM210 845v-5h5v5h-5zM227 856v-5h5v5h-5zM326 260v-6h5v6h-5zM470 470v-6h5v6h-5zM646 492v-6h6v6h-6zM663 459v-23l11 6l-5 17h-6zM691 453v-11h5v11h-5zM724 403v-33h5v33h-5zM740 337v-6h6v6h-6zM729 459l6 -23
l11 6v17h-17zM746 365v-6h5v6h-5zM746 376v-6h5v6h-5zM696 492l33 -6v-11h17l-6 11l11 6h-55zM746 503v-6h5v6h-5zM746 271v-6h11v6h-11zM762 254v-5h6v5h-6zM768 547v-6h11v6h-11zM779 232v-5h6v5h-6zM779 365v-6h6v6h-6zM779 552v-5h6v5h-6zM785 243v-11h5v11h-5zM790 249
v-6h6v6h-6zM790 558v-6h6v6h-6zM796 564v-6l16 6v11zM812 586v-6h6v6h-6zM762 271l6 -11q5 11 33 0l22 77v22l-11 -5l-11 -78zM818 376v-6h11v44zM840 470v-6h5v6h-5zM840 359v-28l11 23v38zM823 293v-17l44 11l-33 6l6 38zM867 298v-5h11v5h-11zM878 365v-6h6v6h-6z
M890 492l5 -11zM15 540q56 212 201 305t238 78q66 16 199 -33q232 -117 265 -349v-38l-55 5l-17 67l6 -72l-44 11l-22 -17l-28 6v-17l39 -5l33 5q66 -22 88 0q-11 -16 6 -33l-166 6q-6 -17 11 -23h22l-5 12l44 -12l-6 -5l6 -11l11 22l16 -44q-5 66 61 44q11 -61 -44 -182
q-111 -221 -376 -249q-33 -11 -193 28q-94 27 -216 165q-82 161 -77 194v66l17 11h-17zM304 470v-6l44 6v5zM530 470v-11l72 5zM381 470v-6h22l-5 11zM545 467l-3 27v13v62l-5 -55l-28 2l28 -7l1 -17l-48 -4h45v-9l-17 -2zM395 449l-1 7l-47 1v-15l21 -3l1 -26l5 -4l-4 -9
l4 -7v-51l1 -67l-2 -8l-33 -3l6 -6l90 1l98 -2l35 1l-68 3l-99 1l-19 3l-2 36l16 1l-10 3l-6 1l-2 37l14 4l-1 45h-4v-40l-8 -3l-1 52v36l21 3l1 -8l212 -1l-206 6l-1 16l251 4l-253 -2zM580 480l70 -7l1 6l-10 3v14l15 1l2 -25l66 -4l-1 12l-26 6l-5 9l45 3l4 9l16 2l8 -2
l22 -5l20 18l41 -10l-4 41l-1 31l7 -1l1 -12l8 -18l9 -13l-4 -8l7 -17l41 -4l4 11l-2 22l-3 25l-7 28l-11 37l-10 26l-13 27l-17 30l-25 36l-13 1v-13l4 -11l-9 -3l-20 14l2 -6l8 -17l-4 -9l5 -9l7 -19l8 -16v-15l-1 -27l-6 -24l-9 -17l-8 -12l11 7l8 12l10 7l3 -10l1 -16
l-16 -11l-1 -7l-20 -14l-20 -2l-14 11l-33 4l-29 8l-17 11l-15 11l-12 12l-13 12l-19 38l11 -18l16 -18l14 -17l20 -12l2 5l7 2l2 4l5 10l3 5l2 11l-6 6l4 8l-1 10l-3 13l5 3l-4 12l11 14l5 3l-1 5v23l3 -12l5 -1l28 20l5 -4l25 1l13 -8l-4 8l-14 24l-15 21l-22 17l-21 15
l-35 9l-33 -1l-28 -12l-24 -30l-8 -43l10 -68l17 -33l14 -22l17 -17l24 -25l28 -11l3 -11l-17 -10l-12 -2l-18 -4l-19 -6l-7 3l-4 2l-5 -16l-16 -4zM743 707l20 -2l-3 -8l-4 -11l4 -11l-12 -7l-6 12l-7 11l1 6l11 1l-1 8l4 -1l-4 1zM723 686l11 -6l-2 -10l4 -6l-3 -6l-2 -9
l-5 -10l-3 16l-4 -11l-4 -3l2 -12l-1 -12l8 -3l8 -14l-9 4l-3 -8l-3 -12l-13 6l14 13l-5 11l1 8l13 10l-19 18l4 5l12 8l3 12l-1 12zM745 637l-3 -12l5 1l5 6l-4 7zM704 629l3 -21l-2 -12l-7 -13l-10 -3l-9 9l12 -16l-3 -4l29 -11l-12 20l15 -2l11 8l-14 8l26 2l-4 16
l-30 22l35 -5l-28 40l33 -6l18 -6l4 19l-2 24l18 -14l11 -13l-2 14l-13 8l-13 11l10 -44l3 -32l-11 13l-46 29l-7 6l36 -34l-35 9l-10 -4zM459 402h-7l-7 3l-2 8l-1 -30l3 -64l2 -15l2 -35l4 -6l-3 26l8 7l3 -3l2 -26l2 12l7 1l2 -5l3 -7l8 10l9 -8l6 -3l1 16l11 2l-2 27
l-19 -3v29l-2 5v58l-3 12l-4 -30l-6 2l-1 24l-5 -13l-7 -4v29zM451 385l11 -2l7 3l5 -11h13l-1 -55l-2 40l-12 4l-2 -77l-2 73l-5 9l-6 -1l-1 -40l1 -23l-5 25l1 30zM452 234l2 -22h-3l12 6l-8 5l4 2l-12 4zM482 227l7 -26l4 -17l-9 -17l13 -1l-2 -19l1 -3l5 -25l1 34v40
l-2 16l13 1l-4 13l-12 -6l-3 2l6 10l-9 -1zM513 109l-1 -3l3 -3l2 2zM527 171l1 -7l12 7l-4 5l-4 -5h-5zM378 144l-4 -5l1 -3l4 -4l4 5zM406 221v-4l-1 -8l2 6zM554 148l-3 -18l6 -14l10 18l-5 5l3 6zM476 320l2 -22l24 -6l4 40l-2 32l-26 -22zM122 294l4 -10l6 8zM148 336
l5 -6l4 5l-2 4zM107 365l5 -5l2 4l-3 4zM132 365l4 -5l3 4l-3 2zM189 360l7 -10l3 6l-3 4h-7zM174 350l3 -4l3 4l-2 4zM177 385l5 -5l7 4l-6 5zM248 412l-6 -2l4 -4l4 3zM143 321l-13 -5l17 1l5 -5l8 -5v6l-3 7l12 5zM170 339l1 -5l5 -4l4 7l-5 5zM95 480v-5l13 2l15 -5h33
l-22 3l-16 4zM109 425l5 -3l6 5l-4 5zM216 245l-2 -3l4 -4l6 6l-5 3zM140 655l1 -6l11 3l-2 3h-10zM192 496l4 -10l9 6l-5 2l-3 2h-5zM61 532l4 -4l5 4l-2 3zM54 507zM62 514l3 -4l7 3l-2 3zM89 528l5 -7l2 5l-1 3zM58 440l2 -3l6 2l-1 4zM766 210l-24 -30l24 14l12 10v12z
M736 222l-6 -14l-28 -22l-20 -18l34 20l16 14l12 32z" />
    <glyph glyph-name="bar" unicode="|" horiz-adv-x="600" 
 />
    <glyph glyph-name="braceright" unicode="}" horiz-adv-x="1020" 
d="M64 473v-3h2v3h-2zM35 494l10 -12l16 -2l3 -5q-3 7 16 7v7l-26 5q-7 -5 -21 0h2zM102 461v-9l7 -5h4l-4 21zM116 369v-17h7q-5 14 0 24zM116 582l2 -10l5 7v7zM118 433l3 -15h4v17zM125 537v-7l5 2l-2 5h-3zM128 612v-2h2v2h-2zM123 518l2 -5l7 2v3h-9zM125 548v-7h7
l-2 7h-5zM90 487v-9q9 7 16 -8l29 5q0 7 -22 10q-4 -5 -26 2h3zM142 416v-2h2v2h-2zM142 600v-2h2v2h-2zM139 657l5 -9h5q2 2 -7 9h-3zM149 636v-5h2v5h-2zM151 667v-5h3v5h-3zM149 660l2 -8h5l-5 8h-2zM151 678v-7l5 3l-2 4h-3zM156 277v-5h2v5h-2zM149 418l2 -7l10 5
q2 7 -5 10h-5zM158 196l3 -5h2v5h-5zM147 369q7 2 14 -17v-14l-7 2q-5 -9 9 -11l2 -19l-11 2l-5 21l2 10q-7 7 -4 26zM163 586v-4h2v4h-2zM161 676l2 -9h2v9h-4zM170 435v-2h3v2h-3zM170 530v-3h3v3h-3zM170 610v-2h3v2h-3zM168 652v-4h5v4h-5zM170 452v-5h5v5h-5zM173 511
v-3h2v3h-2zM173 671v-4h4v4h-4zM177 170v-2h3v2h-3zM180 333l2 -9h2v9h-4zM182 556v-5h5v5h-5zM180 652l2 -9l5 5l-3 4h-4zM182 676v-5h5v5h-5zM182 411l7 -2v-7l-9 2zM187 385l2 -7h2v7h-4zM187 449v-7h4v7h-4zM189 624v-5h2v5h-2zM170 385l5 -9l7 2l5 17l2 -3l5 3
q-5 33 0 42l-5 -2l-5 -14l-11 12l-3 -10q10 -33 0 -38zM163 191l5 -11l9 7l12 -12h7l-5 12h-9l-2 4l-5 -2zM187 170l4 -7h8l-5 7h-7zM199 154v-5h4v5h-4zM199 184l2 -4h2v4h-4zM201 430v-2h5v2h-5zM203 676v-5h3v5h-3zM203 201v-2h5v2h-5zM158 539v-5h10l-3 7l15 -2l-5 -14
l-7 2v-19l5 3l-3 9l7 -7h3l-3 9h7v10l7 -2l8 7l-5 -7h9l-7 18l12 24l-2 5l-7 -5q-3 -21 -10 -24q-14 -4 -16 10q-15 -5 -15 -12l3 -7h-3zM206 702v-2h2v2h-2zM206 267l2 -5h2v5h-4zM203 381v-7h7l-2 7h-5zM206 584v-7l4 2l-2 5h-2zM201 173l5 -12l7 2q2 2 -7 10h-5zM210 357
l3 -7h-7zM210 662v-5h3v5h-3zM201 615l2 -10l12 5l-12 5h-2zM213 622v-3h2v3h-2zM210 161l3 -7h4l-2 7h-5zM210 184l5 -9h2l-2 9h-5zM215 690v-2h5v2h-5zM220 591v-2h2v2h-2zM220 674v-5h5v5h-5zM222 161v-5h5v5h-5zM225 416v-2h2v2h-2zM213 430l9 -7l5 3l-2 7zM225 520v-2
h4v2h-4zM225 541l2 -7l5 3v4h-7zM225 572v-2h7v4zM217 402l3 -5l7 3v-8l9 5l-7 14h-4l2 -9h-10zM232 132l2 -7h5l-3 7h-4zM229 229l10 -4h-5l5 -8v-14l-10 12v14zM234 544l2 -10h3v10h-5zM234 591l2 -5h3v5h-5zM236 243v-4h5v4h-5zM239 125l2 -4h2v4h-4zM241 572v-5h2v5h-2z
M241 558l2 -5l5 3v2h-7zM189 300v-4q10 4 21 -12l12 12l21 -5l8 2l-3 5q-38 0 -38 12q-4 4 -21 -10zM236 340q-2 -9 7 -11l-4 -7l7 -8l9 3l-2 9q9 3 0 19l-5 -5l-2 3zM234 390v-2q9 4 12 0l5 4l7 -9l-3 17l-4 -3l-8 7q3 -12 -9 -14zM260 456l-5 -2zM210 149l17 -10v-4l26 2
l9 -5v5l-21 5l-2 5l-14 -3l-8 7zM258 428v-7h4l-2 7h-2zM265 199v-5l-5 2zM260 336v-3h5v3h-5zM253 478l14 -3l-5 -7l-9 5v5zM267 376v-5h3v5h-3zM272 300v-4h2v4h-2zM272 376v-2h2v2h-2zM270 135v-5h7v5h-7zM277 416v-2h2v2h-2zM284 364h4v-5h-4v5zM286 279v-2h5v2h-5z
M286 333v-4h5l-3 4h-2zM286 390l5 -2l-5 -12l2 12zM300 303v-5h5l-2 5h-3zM281 473l17 -3l5 3l4 -5l-4 -5l-24 5zM307 258v-3h3v3h-3zM307 267v-5l7 3l-2 5zM307 333v-9l7 5l-4 4h-3zM310 364l4 -2v-5h-4v7zM310 130v-5h7l-3 5h-4zM317 390q2 -14 -5 -16q-2 9 -12 11
q5 -2 17 5zM314 220v-10h8l-3 12zM319 437v-2h3v2h-3zM314 423l3 -5l5 3l2 -3v8zM322 168v-7h4l-2 7h-2zM331 170v-7h5v7h-5zM336 255v-2h2v2h-2zM333 504l3 -12h2v12h-5zM215 246q-5 -12 10 -29l-3 -2l5 -14h-7q-10 -24 21 -28l2 -17l-14 2v-4l10 -3l9 5l5 -7h2l-16 42
l59 -9l5 -21l4 -5l-2 24l26 -5l5 5l7 -3v5q-10 -2 -12 7l2 2l-2 15l7 4v3l-12 -3l-9 -11l2 -17l-14 2l-5 3q3 7 -7 23q0 -9 -12 -11v-5q10 2 10 7l5 -10l-3 -4l-21 7l2 7l-7 7q5 7 -9 33h-5l2 -24l-2 -2l-5 7l-12 12l-9 2q0 15 -12 10zM343 314l2 -9l5 2l-2 10q9 0 2 12
l-5 -3q5 -9 -2 -12zM352 121v-3h7l-2 5zM357 466h5l-3 -7zM364 447v-3h2v3h-2zM366 501v-2h3v2h-3zM371 414l3 -7h2l-2 7h-3zM371 466h5v-7l-5 2v5zM326 288l5 -11l7 2l14 -7q3 -10 14 -10l5 5q5 -9 12 -2l-5 14l3 2l-10 17l5 9h-5l-2 24l-5 -2l2 -7l-2 2l-7 -5l2 -21l7 7
l-4 -9l4 -5l-4 -5q-12 0 -14 10v-5zM383 489v-2h2v2h-2zM118 317v-5l26 -7l5 -7l-2 -7q9 -3 9 -10h5l-3 22l17 -5l-2 9q11 12 7 17l-10 2l-5 40l8 -2q-3 -14 7 -19l-3 -9h7l-2 19h5l-5 4l2 5l10 -12l-7 -23l2 -3l10 5q-5 -12 0 -17h11l10 10l2 21l-5 10q19 2 29 -7q2 9 12 9
v-7l19 2q0 -14 11 -12l-2 5h5l-3 -9l5 -3v-14q7 0 5 -7l5 2l-3 29l10 2l38 -5l28 10l-10 2v5l-4 -2l-3 2v7l5 -5l14 -2v-5l7 5l3 12l-3 7q-11 -10 -26 0q5 12 -2 14q-2 28 7 28q-7 0 -5 26l-4 -2l2 -7q0 -17 -9 -17l7 -4l-3 -3l3 -30l-7 -10l4 -2v-21l-23 4v22l-7 9l4 9
l-4 15q4 -3 11 7l-2 2l-17 -2q5 -14 0 -22l-9 3l2 7h-7l-4 -7l-5 5h7l2 2l-2 21l-17 -19l-7 -30l5 -12l-12 -5l-7 2v15h-7l2 -8l-2 -2l-7 5l-7 -7l4 -10q-4 10 -16 12l-28 2l-8 8q-9 -5 -28 2v7l-5 2l-4 -2l2 9q-7 3 -5 12l-4 -4v-26q-3 -10 -17 -3l9 -38l-14 3l3 -14
q16 0 14 -8zM383 499v-7h5l2 7l-2 5zM390 454h5l-3 -10zM383 407v-10h5l4 7v-12h5q5 12 -9 17l2 12l-7 -3v-11zM397 423v-2h3v2h-3zM400 430v-4h4v4h-4zM385 267v-5q10 0 10 -4l12 4l-3 5h-19zM404 409v-5h5v5h-5zM385 213l3 -24l16 -7l7 2v12q-11 3 -16 -7l-5 10q10 7 0 16
zM414 423v-2h2v2h-2zM402 336v-5l5 2l9 -4l2 2l-2 7zM411 478v-3l10 3v4zM416 265v-5h7v7zM423 440v-5h3v5h-3zM418 508l3 -4l5 2v12h-5zM426 125v-2h2v2h-2zM430 104v-2h3v2h-3zM426 378v-4l7 2l-3 7zM416 149l2 -5l5 3q-2 -12 5 -15v12l2 -2l7 2q3 10 -7 12l5 14h-14z
M433 232l2 -7h2v7h-4zM428 270l2 -12l7 2l-2 19h-5l3 -7zM435 447v-3h2v3h-2zM440 123v-5h2v5h-2zM433 376v-2l9 2l-2 5zM348 180v-5l42 -7l5 -36l7 -2l-2 -9l11 -3l3 -7h16l3 -7l4 7h7l-2 5l-14 -3v8l-7 -5l-7 2q4 26 -3 33l-9 -2l2 9l3 -2l9 5v9l-7 7l-28 -2l-3 35l-7 5
l-2 -7q7 -19 5 -31l-15 3l3 28h-7l2 -5l-5 -4l5 -12q0 -10 -9 -7zM440 222l4 -9h5q-5 7 0 12zM444 433v-5h8v5h-8zM449 90v-10h5v10h-5zM447 400l2 -22l5 3l-2 21zM452 76v-5h4v5h-4zM444 109v-7l12 4v5zM201 652v-4l31 -5l-3 -17h5l-2 -11h4q-2 -5 7 -12l3 -19l9 -7l3 -12
q9 2 12 -7l7 2l14 -9l5 -10l7 3l2 -5l28 -5l5 -7l2 5q15 2 17 -7l2 5q57 0 97 30v3l-40 -10q-50 -7 -109 24l-7 9l-7 3q-7 16 -26 23l-9 59q-3 17 7 52q12 3 7 17q14 5 12 14h-5l-26 -40l-12 -10l2 -9l-11 -24l2 -4l-5 -7l3 -10l-19 5zM440 303l2 -5l7 2l-2 -9l7 9h5l-5 7
q-14 3 -14 -4zM423 336v-5h7v-12l7 3l17 -8l5 5l-7 14l-8 -2l-7 5l-2 -3zM459 411l2 -4h2v4h-4zM463 433v-5l5 2v3h-5zM466 482v-2h4v2h-4zM468 52v-7h5v7h-5zM440 168l2 -12q19 2 19 -9l-9 -8l4 -2l-2 -14l5 -7q11 -3 16 5q-5 4 0 28l-7 14l7 2q5 26 -12 29h-4l-5 -31l-2 5
h-12zM461 206v-7l9 -5l8 2l-10 12zM478 544v-5h4v5h-4zM480 47l2 -7h3v7h-5zM468 348l2 -10q12 -2 17 5l-7 12zM466 376l4 -14h10v-5h5l9 21l-5 7l3 17l-10 2l3 3l-3 4q-2 3 -9 -7q5 -2 -3 -26zM492 90v-5h4v5h-4zM478 423l7 -9h4l-4 9l2 -2l7 9h5v5l-12 -2zM501 527v-5h3v5
h-3zM478 123l2 -12l19 -5l9 5v10h-4l-3 -5q-5 21 -23 7zM506 494v-2h2v2h-2zM513 40v-2h2v2h-2zM494 45v-5l7 -2l14 5l-4 4l-10 -4zM485 173l2 -5l19 -3l2 -4l7 2l7 31l-4 9l-12 -4l-5 2l3 -10q-19 0 -19 -18zM522 76v-3h3v3h-3zM520 168v-3h5v8zM520 324v-2h5v2h-5z
M527 173v-5h3v5h-3zM530 265v-3h4v3h-4zM532 496v-2h2v2h-2zM534 35v-2h3v2h-3zM482 154l7 -5q-7 -12 7 -17l17 3v-3l7 3l5 12q2 -5 14 0l-2 7l-24 -5l-5 5l-26 4v-4zM537 173v-8h2v8h-2zM527 454l12 -2v-5l-12 5v2zM511 87q11 3 7 -18l4 7l-2 4h7l-7 -19l2 -4q5 12 17 4
l7 8l-5 7l-4 -7h-7q7 7 4 14l-7 9h-12q0 -7 -7 -5h3zM541 875h5v-5h-5v5zM546 173v-3h2v3h-2zM537 381l2 -10h9v5l-7 5h-4zM522 116l3 -7l21 2v-7l5 7l-14 12l-5 -2l2 -5l-9 5zM513 345l7 -14q12 5 17 0l4 14l7 -2l3 2q-5 7 -12 7l-2 10h-22l5 -10l-2 -7h-5zM544 95v-5l7 -5
l5 2l-8 8h-4zM553 390v-2h3v2h-3zM553 480v-2h3v2h-3zM546 33l5 -5l12 3l-3 4zM556 345v-5l7 3v2h-7zM558 894h7v-5h-7v5zM565 163v-2h2v2h-2zM567 73v-4v4zM565 95v-3h5v3h-5zM551 499l5 -10l-3 -2l5 -17l12 -2l-3 -5l-9 5l-7 -2l2 9l-7 3l7 11l-5 5zM560 177l14 -2v-5
l-14 3v4zM556 144q-5 -9 18 -14h8l-5 12l-10 -3l-4 12zM582 147v-5h4v7zM582 128v-3h7v5zM579 170l5 10l7 -5q2 -12 -5 -14h-7l5 12zM593 279v-5h3v5h-3zM589 43h9l-5 -8l-4 3v5zM600 338v-2h3v2h-3zM608 76v-5v5zM537 180v-3l7 3l14 -12q9 5 12 -3l-3 -7l3 -2q2 5 23 -2
l12 11q-7 12 5 17l-19 2l-2 5l-29 -5q-14 17 -23 -4zM612 76l3 -5zM626 78l-4 -2zM624 345l2 -5zM617 905h9l-2 -9l-7 5v4zM626 220v-5h3v5h-3zM634 865l4 -2l-4 -2v4zM636 345l5 -2v-7h-7zM636 66v-2h7v2h-7zM586 887l17 -5q7 5 23 0q3 9 15 9q-5 -19 -24 -16l5 -7l9 2
l-2 -7l-3 2l-9 -4l-9 4l-8 -4l-11 7q-3 -5 -24 0l7 11q12 -2 14 8zM643 69v-3h5v3h-5zM643 835v-5h5v5h-5zM641 208l2 -7h5l-3 5h10v4zM657 390h5l-7 -14zM655 887l7 -3l-12 -14h-5zM662 177v-4h2v4h-2zM624 856l14 -3l10 -9q14 0 19 -9l-12 -15l-24 7l3 8l-15 2zM662 870
l5 -7v-12l-10 7zM652 329l12 -7h7q3 2 -7 9zM667 340v-2h4v2h-4zM641 735q21 3 30 -5l-2 -4l-12 4l-14 -4l-5 2zM674 794v-4h2v4h-2zM667 910q14 3 16 -5l-2 -4l-14 4v5zM686 877h4v-7h-7zM690 726h7v-5h-7v5zM690 291l10 -5h-10v5zM660 801q9 8 35 -16l-2 -12l11 -5l-2 -4
h-7q-9 7 -9 16q-3 -12 -17 -5q-17 15 -14 19zM704 898v-2h3v2h-3zM704 636h5v-5h-5v5zM712 310v-3h2v3h-2zM695 749q17 3 21 -4l-4 -15l-31 3l7 2zM707 761h9v-7h-12zM714 267v-5h5v5h-5zM719 586l11 -2v-5h-14zM738 761l-5 -2zM735 326l5 -2l-2 -10zM740 229l7 -2v-5l-7 3
v4zM749 719v-5l-7 2zM749 326l5 -2l-5 -7v9zM610 241v-5l7 3l2 -10v-2l5 2l-2 5q12 -2 12 -7h9l-7 -7l2 -3l12 3l14 -17l-4 -7l2 -5q-31 -2 -33 5l-12 -7l2 -7q24 5 57 0l-5 -9h12q-2 9 17 9q0 5 -12 5l7 7v5q28 0 35 -10l5 7h5l-5 12l31 14v5l-14 2v5q-14 2 -22 -5l3 -4
l-10 -8h-7l7 10q-21 2 -35 -14l-2 4q-8 10 -17 0l-9 12l-12 -4l4 11l-23 10q-7 -7 -21 -5h2zM730 641q8 -10 22 0l14 -5l-21 -7l-17 5l-5 -3zM766 338v-2h2v2h-2zM759 719l12 -3v-4h-12v7zM735 747q14 -7 17 5l2 -7l17 -5l-3 -7l-9 5l-14 -3l-12 7zM773 246v-3h2v3h-2z
M778 234v-5h2v5h-2zM778 246v-3h2v3h-2zM778 740h5v-5h-5v5zM697 243l10 -4q19 4 23 -3l10 3l-2 7l23 9h7v-7h5l-2 5l14 7l-10 5v7l-23 -2l-3 -5q-26 2 -23 -17l-17 3zM785 714h5v-5h-5v5zM780 757l12 -5l-2 -7l-19 2zM778 634l23 -3l-4 -5h-22zM780 248l5 -9l19 7v5l-14 -3
v5q-7 2 -10 -5zM806 355l3 -5zM809 589h4v-5h-4v5zM809 610l9 -5l-9 -2v7zM820 265v-3h5v3h-5zM806 712l19 -5v-5l-21 5zM801 284l3 -5l12 -2h11v7l-11 -3l-5 5zM825 319l2 -5zM835 567v-4l-10 2zM837 532l2 -5h-4zM827 610l12 -5l7 3v-5q-19 5 -26 0zM832 390l3 -9l4 2v-2
l5 4l5 -2l-10 -19h-16q-5 7 -12 5q9 2 21 21zM837 707l14 -3l-2 -7q-12 5 -14 0zM844 293v-7h9l-2 7h-7zM823 494l30 -5l-4 -7l-29 5zM839 279v-7l17 2v5h-17zM842 544l16 -3v-4l-16 2v5zM856 553h5v-5h-5v5zM832 596l14 -3q-2 -9 5 -11l10 -5l-29 -3q0 8 -9 8zM863 695v-5
h5v5h-5zM870 281v-4h7v4h-7zM884 608v-3h3v3h-3zM889 612v-4h9v4h-9zM891 314l3 -4q7 4 28 -3l-7 7h-24zM879 329v-5l8 2l4 -4l14 2q12 -10 19 -2l-2 4q-14 -2 -19 7zM927 340h-12h12zM929 385v-4l-5 2zM969 520l3 -5zM473 962q64 5 104 -5q3 -17 91 -35q62 -32 96 -71
q-8 -24 -28 -39l67 -20l3 -9q7 2 24 -19l2 -15q17 -14 14 -23q19 -19 31 -29v-7l-24 -7l5 -20q35 -3 33 -27q-28 -2 -30 5l9 -19l12 -7v-5q5 16 28 5l-5 -15l19 -9q0 -12 -9 -14l14 -5l-5 -24q15 -9 38 -11l-2 -17l14 17l12 -24v-14q-7 26 -14 26h-5q-2 -17 -19 -14l-9 11
q11 0 16 10l-31 2l-14 22l10 11l-17 3l2 9l-2 7q5 -4 12 0l-2 7l-31 3l-10 7l3 2q2 7 -14 10q7 14 -8 16q5 10 0 12l-52 5l-7 7l88 -12l2 2l-2 10l-19 -3l-28 8v4q11 -4 16 0v7h-7v10q-14 2 -9 14l23 -2v26q-12 -12 -16 -7l2 9l-12 17h-5l-4 -15l-10 15l-14 -3v5l2 -2l5 2
l-5 9q15 -4 19 0v5h-7l5 10l-5 7l-16 4q-5 10 2 19l-9 5l-12 -7l-10 7h-11l-3 7q-16 -2 -35 7v5l11 -2l22 14v9l5 3l-5 16l-14 24h-5l2 -12h-14l-2 12l-19 12l-3 9q-9 10 -21 12q-9 -2 -47 16q-62 10 -59 22l-109 2q-123 -16 -203 -71v-12l9 -4l-5 -10q10 -2 10 -9l5 2
l-3 -9l10 -3l-5 -16l5 -3l-3 -11l15 7l7 -5l-5 -21l12 9q-3 14 14 12l-7 -12q9 -2 0 -21l54 21q64 10 107 -21q30 -19 44 -69q3 -61 -4 -73l-26 -45l-24 -26l10 -2l-8 -10l8 -7l4 2q0 15 7 12v-7q7 -2 5 -12l5 5l2 14l3 -2l4 5v-7l5 2l-2 -7l4 -3q-4 -18 0 -26l7 -2
q-4 -2 3 -16h5l-3 16l7 14l-2 3l7 -3l-5 -2v-10l7 -11l-4 -10h7l-5 -26l5 -9l-7 -5q-15 5 -17 0l-7 7l-5 -5l-9 5l-33 5q-5 -10 -19 -3l-7 -2v-7q-12 5 -14 0q11 2 14 12l-10 9l-16 -14l-10 7q-7 -5 -16 0l2 14l-7 -11l-9 -5q-15 5 -17 0l2 7l-2 2l-7 -2l-5 5l-19 -3l-4 7
q-3 -7 -12 -4l-7 9l-3 -7l-2 2l-14 -2l7 7v2h-12l-2 -4l-3 2q-9 -9 -21 0q5 17 0 21l5 17l-3 7h-9l5 -14q4 -31 -10 -33l-16 4l-3 -4l-19 -5l-4 7l4 24l-4 2l2 7l-17 -9q0 -7 10 -10l-7 -16l-38 9l-14 -2q2 12 -5 14l-7 -2l-5 -10l-5 3l3 23l-10 -2q3 -19 -7 -19l-56 9
l-3 -2l3 -12l9 5l7 -7l7 2l5 -5l64 -7l7 3l16 -7q5 4 31 -3v-4q-40 4 -52 0l2 -8l19 -2l7 2l15 -9l28 2l5 -4l23 2q-2 -17 10 -14l-3 5l3 2l9 -10l12 3q3 -10 17 -3l-5 10l-7 -5v10q7 -5 24 2q9 -2 9 -14q2 -7 -17 -14l-2 -5l2 -2h8l-3 9l17 -2q-5 11 0 16l21 -9q-5 19 9 19
l15 -3l-3 -2l3 -5q7 -2 9 5l12 -5l2 3l-2 4l16 -21q8 24 22 21l14 -9l7 5l9 -3l8 -7l21 2l9 -4l38 2l21 -7l-4 -47l2 -3h5l4 50q26 5 31 -2v-7l-9 -5v-5h7l-5 -31l10 -9h9l2 9h7q0 -9 12 -21l-2 -14l5 -2q-5 -24 0 -26h21l5 -10l7 2l-3 5l5 10l-2 23l9 -4q3 7 7 4l-2 -2
l7 -7l5 2l7 -9v9h14l-2 -23q11 4 9 21q12 2 14 -7l17 -3q-3 -30 -7 -33l-43 -4q-7 -5 -5 -12h-4l-19 -19h-19l-5 5l14 2l-7 7l-16 -2v-5l7 -2l-3 -5l-2 2l-14 -5l-5 3l3 2l-3 7h-5v-4l-18 -3l2 -5q14 5 19 0q-14 0 -12 -11l19 2l12 -5q2 5 21 0l-2 5l-12 5l14 4l2 -2l50 2
l5 10q4 -5 16 0l10 9l-3 -7q10 0 10 -4l7 2l-2 9l2 -2l12 2l7 -7l21 3l12 -10l7 7q0 12 -12 14q14 3 12 10q-16 0 -28 -10l-3 3l-23 -7l-7 4v8l9 4l-2 5l2 -2l21 4v12h-9l5 26l9 10q-7 2 -5 7l10 4l5 10l11 -10l-2 -7l-14 -4v-5h12l-7 -14l7 4l11 -4l3 2l-3 10l12 -12
q3 21 12 16v-9h10l7 9l9 -2l-19 -19h-7l-7 -7l-12 5h-12l3 -7l-14 2l-3 -2l10 -8q16 5 26 0l4 5l-2 -9h28v4l-9 8l21 -3l3 3l-3 9h5v12q-10 2 -2 16l9 7v5l2 -2l7 2l5 -12l26 -4l31 16q-10 12 0 17h12l-5 -17l12 -5l7 3l14 45l-16 -71l-19 21q-3 -21 -41 -14l8 -7l-22 7
q-2 12 -9 7v-12q19 -9 49 -12q-2 -30 -7 -33h-21l-9 7q-10 -2 -29 7l-4 -4l-24 -3l47 -14l7 -5l-2 -9q-28 -7 -47 -26l-3 7l-9 -2l2 -7l-12 2l-11 -21l-26 -5q2 -14 -8 -21l-26 -12q-4 -26 -42 -7l5 -7q14 -7 9 -17q-14 -5 -12 -14l31 2l-2 -16q-3 7 -60 4l3 8l16 -3v5h-11
l21 12l5 7h-15q-2 -7 -11 -5l-8 7l-9 -5l7 -7q-24 3 -31 -7l-28 5q2 -9 7 -9h28l5 -12l-9 -3h-7v7l-31 -4l5 -7l30 -5q-28 5 -28 -17l-9 5l-34 -2l-14 9l5 -19q9 -2 12 7l-3 -9l15 -5l2 -5h5l4 10q22 2 24 -7l-2 -7l-3 2l-9 -2l-5 4q-12 -14 -19 -9q-2 12 -9 7l2 -5l-5 -2
l-2 2l-19 -2v-5l12 -12l17 3l2 -3l-7 -7l-10 3l-4 -5l-3 2l-9 -2l2 -5l31 3l9 7l-14 -12l3 -7l-17 -5l7 -5l12 5l16 -9l36 7l12 9h14l16 10l29 9q14 -2 19 5v2q-38 -2 -59 -16l-10 4l-14 -4l-7 4l-14 -7l-3 3q-9 2 -14 -5l-5 2l10 12l-2 5l2 -3l21 8l21 18l-11 8l7 9h-12v9
q12 -4 26 0q-5 10 0 12l2 -2q24 9 45 0l-5 9l24 -2q-12 -19 -54 -19v-9l-10 -19l-16 -14h16l3 -5q19 0 59 12l14 -10q-109 -59 -199 -61q-215 -7 -361 127q-133 126 -152 317q-7 215 128 362q125 132 317 151zM752 532l-7 -5l-24 3l-2 4zM794 560l50 -4l-7 -5l-7 -7l12 2
l47 -7h-28q0 -7 -8 -5l-16 3v-5l40 -2l-14 -10q-19 2 -19 7l-14 -5l2 3l-2 12l-5 -3l-7 5q-7 -9 -17 -2l5 4l7 -2l3 2l-10 3v4l-5 -7l-7 3l5 9q-7 3 -5 7zM704 589l15 -5v5l2 -3h14q3 10 17 3v-12l-7 9h-7l-3 -9l-31 5v7zM809 642l-10 -2l-33 6l-71 2l81 1zM661 661h57
l52 -3l39 -4l-81 3l-27 1l-37 2zM831 618l-48 1l-36 2l-27 1h53l33 -1zM776 702l-46 2l-39 2l-26 1l69 -2l56 -3l33 -6zM876 584l-16 6l-87 6l-41 2l62 -2l30 -1l48 -6zM671 749l-22 2h30l5 -2h-13zM814 671l-20 -1l-26 2l-46 -1l41 -3l23 -1l20 2zM767 547l-39 3l-10 -1
l52 -5l28 -1zM820 515l9 -4l37 -2l40 -3l27 1l8 1l3 -3l-12 -1l-44 3l-57 2l-62 5zM765 526l58 -1l98 -4l-15 -3l-101 4zM895 576l-10 -3l-97 3l-21 5l33 -1z" />
    <glyph glyph-name="asciitilde" unicode="~" horiz-adv-x="600" 
 />
    <glyph glyph-name="bullet" unicode="&#xb6;" horiz-adv-x="1048" 
d="M306 1128l146 16l7 -26l-65 -42l-41 -4l-27 -277q32 77 75 106.5t100.5 37.5t116 1t89 -27t52 -62.5t28.5 -88.5l7 -15l3 -68l31 -248l-110 -55l4 -11l11 -9q121 30 127 -2l48 -8q26 -30 0 -45l-555 -14l-187 -23q-28 22 72 66l117 10l-16 18l-7 19l13 23l3 8l-53 24
l22 247v61q-15 3 -22 25l31 306l-24 10l-10 30zM615 740v-64l4 -8l-1 -314l29 -1l3 338h5v46zM466 745l-12 -38l36 -8l9 44zM408 710l6 33l-12 2l-8 -35h14zM348 717h5l2 16l-27 2v-13zM713 733l-8 -40h16l13 38zM734 694l30 -1l13 17l1 18l-31 5zM322 707l131 -13l80 -15
l-4 -277l-9 73q-7 80 -18 110t-31 53.5t-43 33t-46 11.5t-54 3zM662 677l115 16l1 -28q-22 -8 -35.5 -13.5t-24.5 -20t-23 -45.5t-24 -124l-10 -80zM316 715l5 -36q24 1 51 -0.5t49.5 -13.5t44 -33.5t29 -48.5t29.5 -200l9 -6l6 309l-87 14zM658 685l-1 -330l8 1
q21 189 36.5 227t27 49.5t29.5 18.5t28 7v40zM524 354q-13 48 -21 77t-17 61.5t-26.5 66.5t-54.5 46q-38 -2 -52 -20t-26 -49t-26 -99zM792 424q-15 108 -26.5 143.5t-28.5 28.5q-22 -16 -30.5 -33t-11 -35.5t-12.5 -72.5l-4 -62l-7 -35l120 61v5zM326 752l-4 -5l8 -8l46 6
l50 4l69 2l114 -5l75 -7l80 -2l23 -10v25q-31 12 -67.5 17.5t-90.5 9.5t-106.5 3t-96.5 -3.5t-100 -26.5zM337 755q55 14 121 15.5t100.5 1.5t79.5 -1.5t81.5 -7t63.5 -17.5l4 -13l-31 7l-106 7l-75 4l-91 1h-66l-57 -5l-31 -6l-4 5zM480 913q57 -7 89.5 -8.5t64 -3.5
t39 1.5t3 9.5t-17 12t-42.5 9t-51.5 3t-42 -3t-42.5 -20zM669 891q4 -24 19.5 -30.5t24.5 -9.5t15 5t0.5 17t-15 15t-18.5 8.5t-26 -5.5zM687 894q15 -1 25 -8t15 -14.5t0.5 -10.5t-8.5 -2t-12.5 3t-16 9t-9.5 13.5t6 9.5zM336 1074l-20 -220l27 220h-7zM247 306
q-58 -10 -74.5 -18.5t-9.5 -13.5t20 -3.5t28 10t36 25.5zM913 318q-7 19 -23.5 17.5t-29.5 -9t-37.5 -10.5t-41.5 -7t31 -0.5t101 9.5zM250 234q11 -54 -21 -65l21 -11q22 87 65 97q107 0 118 -44q23 -84 -53 -118h-65l-54 55q-11 -65 -152 -55l-10 107h-27v55
q178 10 178 -21zM153 191h42v20h-42v-20zM153 127l53 11l-11 20h-42v-31zM336 127l44 11l-13 73l-52 -11q-12 -52 21 -73zM444 255q140 10 150 -21q13 -54 -21 -65q34 11 34 -31l41 117h75l43 -128v-34l-106 34l-23 -34l-53 24q-43 -34 -140 -24v162zM499 191h42v20h-42v-20
zM499 127l52 11l-10 20h-42v-31zM671 158h33l-11 53l-22 -20v-33zM200 69h151v-54l-75 -11h54v-30h-43l-22 -66l-41 12l-24 95v54zM533 25q22 -83 -53 -117q-107 0 -119 54q-21 53 55 107q108 0 117 -44zM437 -58l43 10l-10 73l-54 -10q-11 -53 21 -73zM546 72q41 20 86 -45
q0 45 21 45h172v-56h-42v-52h97q-75 74 -20 108h108v-45l-54 -20q66 -64 0 -94h-173l-12 94l-42 9l-11 -103h-33l-56 51v-51h-41v159z" />
    <glyph glyph-name="registered" unicode="&#xc6;" horiz-adv-x="768" 
d="M734 968v-969h-662l-31 61v333h115v-188h472v185h-300v204h300v170h-472v-201h-115v355l25 50h668z" />
    <glyph glyph-name="yen" unicode="&#xc7;" horiz-adv-x="821" 
d="M561 968l242 -969h-783v226h606l-132 520h-474v223h541z" />
    <glyph glyph-name="dieresis" unicode="&#xd0;" horiz-adv-x="748" 
d="M706 13l-12 -7l-19 -6h-602l-21 4l-12 8l-5 20l-1 33v845l2 31l5 19l10 11l22 3h602l22 -2l10 -8l5 -18l3 -36v-845l-3 -35zM603 196v560h-456v-164h284v-200h-286v-196h458z" />
    <glyph glyph-name="lessequal" unicode="&#xd1;" horiz-adv-x="659" 
d="M614 968v-969h-99v746h-196l-182 -746h-110l176 729v17h-91v223h502z" />
    <glyph glyph-name="trademark" unicode="&#xd8;" horiz-adv-x="540" 
d="M472 966l32 -61v-844l-32 -61h-179v223h96v520h-96v223h179zM243 966v-223h-96v-520h96v-223h-179l-31 61v844l31 61h179z" />
    <glyph glyph-name="copyright" unicode="&#xe6;" horiz-adv-x="768" 
d="M734 968v-969h-662l-31 61v333h115v-188h472v185h-300v204h300v170h-472v-201h-115v355l25 50h668z" />
    <glyph glyph-name="mu" unicode="&#xe7;" horiz-adv-x="821" 
d="M561 968l242 -969h-783v226h606l-132 520h-474v223h541z" />
    <glyph glyph-name="notequal" unicode="&#xf0;" horiz-adv-x="748" 
d="M706 13l-12 -7l-19 -6h-602l-21 4l-12 8l-5 20l-1 33v845l2 31l5 19l10 11l22 3h602l22 -2l10 -8l5 -18l3 -36v-845l-3 -35zM603 196v560h-456v-164h284v-200h-286v-196h458z" />
    <glyph glyph-name="greaterequal" unicode="&#xf1;" horiz-adv-x="659" 
d="M614 968v-969h-99v746h-196l-182 -746h-110l176 729v17h-91v223h502z" />
    <glyph glyph-name="acute" unicode="&#xf8;" horiz-adv-x="540" 
d="M472 966l32 -61v-844l-32 -61h-179v223h96v520h-96v223h179zM243 966v-223h-96v-520h96v-223h-179l-31 61v844l31 61h179z" />
    <glyph glyph-name="partialdiff" unicode="&#x152;" horiz-adv-x="840" 
d="M64 227l32 -227h650l31 227h-713zM61 260l-31 185l48 47l41 60l41 73l34 75l24 86l17 87l13 99h355l10 -77l17 -98l24 -92l34 -85l41 -72l40 -51l48 -52l-35 -185l-60 59l-59 78l-62 107l-39 85l-27 84l-18 82h-193l-24 -97l-25 -67l-42 -94l-54 -92l-60 -81z" />
    <glyph glyph-name="summation" unicode="&#x153;" horiz-adv-x="840" 
d="M64 227l32 -227h650l31 227h-713zM61 260l-31 185l48 47l41 60l41 73l34 75l24 86l17 87l13 99h355l10 -77l17 -98l24 -92l34 -85l41 -72l40 -51l48 -52l-35 -185l-60 59l-59 78l-62 107l-39 85l-27 84l-18 82h-193l-24 -97l-25 -67l-42 -94l-54 -92l-60 -81z" />
    <glyph glyph-name="paragraph" unicode="&#x160;" horiz-adv-x="899" 
d="M880 968l-230 -969h-454v299h95v-73h291l126 522l7 23v3h-424v-65h-95v260h684zM139 968v-260h-114v260h114zM25 298h114v-299h-114v299z" />
    <glyph glyph-name="germandbls" unicode="&#x161;" horiz-adv-x="899" 
d="M880 968l-230 -969h-454v299h95v-73h291l126 522l7 23v3h-424v-65h-95v260h684zM139 968v-260h-114v260h114zM25 298h114v-299h-114v299z" />
    <glyph glyph-name="AE" unicode="&#x2018;" horiz-adv-x="312" 
d="M121 1085l-67 -89h101v-611l124 213v487h-158z" />
    <glyph glyph-name="Oslash" unicode="&#x2019;" horiz-adv-x="312" 
d="M212 1085l67 -89h-101v-611l-124 213v487h158z" />
    <glyph glyph-name="infinity" unicode="&#x201c;" horiz-adv-x="540" 
d="M511 976v-503h-203l-286 503h163l197 -352v352h129z" />
    <glyph glyph-name="plusminus" unicode="&#x201d;" horiz-adv-x="536" 
d="M22 976v-503h203l286 503h-163l-197 -352v352h-129z" />
    <glyph glyph-name="Ccedilla" horiz-adv-x="992" 
d="M872 976v-503h-353l-497 503h283l343 -352v352h224z" />
    <glyph glyph-name="Eacute" horiz-adv-x="992" 
d="M80 976v-503h353l497 503h-283l-343 -352v352h-224z" />
    <glyph glyph-name="ntilde" horiz-adv-x="600" 
d="M392 1085l120 -89h-180v-611l-222 213v487h282z" />
    <glyph glyph-name="oacute" horiz-adv-x="600" 
d="M230 1085l-120 -89h180v-611l222 213v487h-282z" />
    <glyph glyph-name="dagger" horiz-adv-x="1000" 
d="M50 600h150l184 -210v210h124v-300h-200z" />
    <glyph glyph-name="degree" horiz-adv-x="1000" 
d="M100 600h138l174 -224v224h108v-300h-194z" />
    <glyph glyph-name="cent" horiz-adv-x="1345" 
d="M1261 972l36 -36v-351h-224v185h-821v-546h689l-297 -224h-532l-73 73v860l39 39h1183z" />
    <glyph glyph-name="sterling" horiz-adv-x="1259" 
d="M1204 972v-969h-198v746h-394l-366 -746h-221l355 729v17h-184v223h1008z" />
    <glyph glyph-name="section" horiz-adv-x="1028" 
d="M911 972l61 -61v-844l-61 -61h-350v223h188v520h-188v223h350zM464 972v-223h-187v-520h187v-223h-349l-62 61v844l62 61h349z" />
  </font>
</defs>
</svg>
